<svg width="41" height="45" viewBox="0 0 41 45" fill="none" xmlns="http://www.w3.org/2000/svg">
<path d="M3.625 40.7813C3.625 41.9001 4.06947 42.9732 4.86064 43.7644C5.65181 44.5555 6.72487 45 7.84375 45H33.1562C34.2751 45 35.3482 44.5555 36.1394 43.7644C36.9305 42.9732 37.375 41.9001 37.375 40.7813V11.25H3.625V40.7813ZM27.5312 18.2813C27.5312 17.9083 27.6794 17.5506 27.9431 17.2869C28.2069 17.0232 28.5645 16.875 28.9375 16.875C29.3105 16.875 29.6681 17.0232 29.9319 17.2869C30.1956 17.5506 30.3438 17.9083 30.3438 18.2813V37.9688C30.3438 38.3417 30.1956 38.6994 29.9319 38.9631C29.6681 39.2269 29.3105 39.375 28.9375 39.375C28.5645 39.375 28.2069 39.2269 27.9431 38.9631C27.6794 38.6994 27.5312 38.3417 27.5312 37.9688V18.2813ZM19.0938 18.2813C19.0938 17.9083 19.2419 17.5506 19.5056 17.2869C19.7694 17.0232 20.127 16.875 20.5 16.875C20.873 16.875 21.2306 17.0232 21.4944 17.2869C21.7581 17.5506 21.9062 17.9083 21.9062 18.2813V37.9688C21.9062 38.3417 21.7581 38.6994 21.4944 38.9631C21.2306 39.2269 20.873 39.375 20.5 39.375C20.127 39.375 19.7694 39.2269 19.5056 38.9631C19.2419 38.6994 19.0938 38.3417 19.0938 37.9688V18.2813ZM10.6562 18.2813C10.6562 17.9083 10.8044 17.5506 11.0681 17.2869C11.3319 17.0232 11.6895 16.875 12.0625 16.875C12.4355 16.875 12.7931 17.0232 13.0569 17.2869C13.3206 17.5506 13.4688 17.9083 13.4688 18.2813V37.9688C13.4688 38.3417 13.3206 38.6994 13.0569 38.9631C12.7931 39.2269 12.4355 39.375 12.0625 39.375C11.6895 39.375 11.3319 39.2269 11.0681 38.9631C10.8044 38.6994 10.6562 38.3417 10.6562 37.9688V18.2813ZM38.7812 2.81252H28.2344L27.4082 1.16896C27.2332 0.817586 26.9636 0.522018 26.6298 0.315506C26.2959 0.108995 25.9111 -0.00026613 25.5186 1.54096e-05H15.4727C15.081 -0.0014902 14.6968 0.107363 14.3642 0.314104C14.0315 0.520846 13.7638 0.817112 13.5918 1.16896L12.7656 2.81252H2.21875C1.84579 2.81252 1.4881 2.96067 1.22438 3.2244C0.960658 3.48812 0.8125 3.8458 0.8125 4.21877L0.8125 7.03127C0.8125 7.40423 0.960658 7.76191 1.22438 8.02563C1.4881 8.28936 1.84579 8.43752 2.21875 8.43752H38.7812C39.1542 8.43752 39.5119 8.28936 39.7756 8.02563C40.0393 7.76191 40.1875 7.40423 40.1875 7.03127V4.21877C40.1875 3.8458 40.0393 3.48812 39.7756 3.2244C39.5119 2.96067 39.1542 2.81252 38.7812 2.81252V2.81252Z" fill="#F50B0B"/>
</svg>
