<svg width="233" height="28" viewBox="0 0 233 28" fill="none" xmlns="http://www.w3.org/2000/svg">
<path d="M21.6406 18.334C21.5586 20.1152 21.0781 21.6914 20.1992 23.0625C19.3203 24.4219 18.084 25.4766 16.4902 26.2266C14.9082 26.9766 13.0977 27.3516 11.0586 27.3516C7.69531 27.3516 5.04688 26.2559 3.11328 24.0645C1.17969 21.873 0.212891 18.7793 0.212891 14.7832V13.5176C0.212891 11.0098 0.646484 8.81836 1.51367 6.94336C2.39258 5.05664 3.65234 3.60352 5.29297 2.58398C6.93359 1.55273 8.83203 1.03711 10.9883 1.03711C14.0938 1.03711 16.5898 1.85742 18.4766 3.49805C20.3633 5.12695 21.4355 7.37695 21.6934 10.248H15.541C15.4941 8.68945 15.1016 7.57031 14.3633 6.89062C13.625 6.21094 12.5 5.87109 10.9883 5.87109C9.45312 5.87109 8.32812 6.44531 7.61328 7.59375C6.89844 8.74219 6.52344 10.5762 6.48828 13.0957V14.9062C6.48828 17.6367 6.82812 19.5879 7.50781 20.7598C8.19922 21.9316 9.38281 22.5176 11.0586 22.5176C12.4766 22.5176 13.5605 22.1836 14.3105 21.5156C15.0605 20.8477 15.459 19.7871 15.5059 18.334H21.6406ZM35 27C34.7891 26.6133 34.6016 26.0449 34.4375 25.2949C33.3477 26.666 31.8242 27.3516 29.8672 27.3516C28.0742 27.3516 26.5508 26.8125 25.2969 25.7344C24.043 24.6445 23.416 23.2793 23.416 21.6387C23.416 19.5762 24.1777 18.0176 25.7012 16.9629C27.2246 15.9082 29.4395 15.3809 32.3457 15.3809H34.1738V14.3789C34.1738 12.6328 33.418 11.7598 31.9062 11.7598C30.5 11.7598 29.7969 12.4512 29.7969 13.834H23.873C23.873 11.9941 24.6523 10.5 26.2109 9.35156C27.7812 8.20313 29.7793 7.62891 32.2051 7.62891C34.6309 7.62891 36.5469 8.2207 37.9531 9.4043C39.3594 10.5879 40.0801 12.2109 40.1152 14.2734V22.6934C40.1387 24.4395 40.4082 25.7754 40.9238 26.7012V27H35ZM31.291 23.1328C32.0293 23.1328 32.6387 22.9746 33.1191 22.6582C33.6113 22.3418 33.9629 21.9844 34.1738 21.5859V18.5449H32.4512C30.3887 18.5449 29.3574 19.4707 29.3574 21.3223C29.3574 21.8613 29.5391 22.3008 29.9023 22.6406C30.2656 22.9688 30.7285 23.1328 31.291 23.1328ZM48.8516 7.98047L49.0449 10.2129C50.3574 8.49023 52.168 7.62891 54.4766 7.62891C56.457 7.62891 57.9336 8.2207 58.9062 9.4043C59.8906 10.5879 60.4004 12.3691 60.4355 14.748V27H54.4941V14.9941C54.4941 14.0332 54.3008 13.3301 53.9141 12.8848C53.5273 12.4277 52.8242 12.1992 51.8047 12.1992C50.6445 12.1992 49.7832 12.6562 49.2207 13.5703V27H43.2969V7.98047H48.8516ZM62.9844 17.3496C62.9844 14.3379 63.6348 11.9648 64.9355 10.2305C66.2363 8.49609 68.0527 7.62891 70.3848 7.62891C72.084 7.62891 73.5137 8.29688 74.6738 9.63281V0H80.6152V27H75.2891L74.9902 24.9609C73.7715 26.5547 72.2246 27.3516 70.3496 27.3516C68.0879 27.3516 66.2949 26.4844 64.9707 24.75C63.6465 23.0156 62.9844 20.5488 62.9844 17.3496ZM68.9082 17.7188C68.9082 21.0938 69.8926 22.7812 71.8613 22.7812C73.1738 22.7812 74.1113 22.2305 74.6738 21.1289V13.8867C74.1348 12.7617 73.209 12.1992 71.8965 12.1992C70.0684 12.1992 69.0781 13.6758 68.9258 16.6289L68.9082 17.7188ZM90.2305 27H84.2891V7.98047H90.2305V27ZM83.9375 3.07617C83.9375 2.23242 84.2422 1.54102 84.8516 1.00195C85.4609 0.462891 86.252 0.193359 87.2246 0.193359C88.1973 0.193359 88.9883 0.462891 89.5977 1.00195C90.207 1.54102 90.5117 2.23242 90.5117 3.07617C90.5117 3.91992 90.207 4.61133 89.5977 5.15039C88.9883 5.68945 88.1973 5.95898 87.2246 5.95898C86.252 5.95898 85.4609 5.68945 84.8516 5.15039C84.2422 4.61133 83.9375 3.91992 83.9375 3.07617ZM103.098 27.3516C100.18 27.3516 97.8184 26.4844 96.0137 24.75C94.209 23.0039 93.3066 20.7363 93.3066 17.9473V17.4551C93.3066 15.5098 93.6641 13.793 94.3789 12.3047C95.1055 10.8164 96.1602 9.66797 97.543 8.85938C98.9258 8.03906 100.566 7.62891 102.465 7.62891C105.137 7.62891 107.246 8.46094 108.793 10.125C110.34 11.7773 111.113 14.0859 111.113 17.0508V19.3535H99.3359C99.5469 20.4199 100.01 21.2578 100.725 21.8672C101.439 22.4766 102.365 22.7812 103.502 22.7812C105.377 22.7812 106.842 22.125 107.896 20.8125L110.604 24.0117C109.865 25.0312 108.816 25.8457 107.457 26.4551C106.109 27.0527 104.656 27.3516 103.098 27.3516ZM102.43 12.1992C100.695 12.1992 99.6641 13.3477 99.3359 15.6445H105.312V15.1875C105.336 14.2383 105.096 13.5059 104.592 12.9902C104.088 12.4629 103.367 12.1992 102.43 12.1992ZM123.471 21.6562C123.471 21.1523 123.207 20.748 122.68 20.4434C122.152 20.1387 121.15 19.8223 119.674 19.4941C118.197 19.166 116.979 18.7383 116.018 18.2109C115.057 17.6719 114.324 17.0215 113.82 16.2598C113.316 15.498 113.064 14.625 113.064 13.6406C113.064 11.8945 113.785 10.459 115.227 9.33398C116.668 8.19727 118.555 7.62891 120.887 7.62891C123.395 7.62891 125.41 8.19727 126.934 9.33398C128.457 10.4707 129.219 11.9648 129.219 13.8164H123.277C123.277 12.293 122.475 11.5312 120.869 11.5312C120.248 11.5312 119.727 11.707 119.305 12.0586C118.883 12.3984 118.672 12.8262 118.672 13.3418C118.672 13.8691 118.93 14.2969 119.445 14.625C119.961 14.9531 120.781 15.2227 121.906 15.4336C123.043 15.6445 124.039 15.8965 124.895 16.1895C127.754 17.1738 129.184 18.9375 129.184 21.4805C129.184 23.2148 128.41 24.627 126.863 25.7168C125.328 26.8066 123.336 27.3516 120.887 27.3516C119.258 27.3516 117.805 27.0586 116.527 26.4727C115.25 25.8867 114.254 25.0898 113.539 24.082C112.824 23.0742 112.467 22.0137 112.467 20.9004H118.004C118.027 21.7793 118.32 22.4238 118.883 22.834C119.445 23.2324 120.166 23.4316 121.045 23.4316C121.854 23.4316 122.457 23.2676 122.855 22.9395C123.266 22.6113 123.471 22.1836 123.471 21.6562ZM161.035 17.4551L163.971 1.40625H170.088L164.656 27H158.258L154.83 12.4102L151.473 27H145.092L139.643 1.40625H145.777L148.713 17.4551L152.229 1.40625H157.467L161.035 17.4551ZM170.914 17.3145C170.914 15.416 171.283 13.7285 172.021 12.252C172.76 10.7637 173.82 9.62109 175.203 8.82422C176.586 8.02734 178.209 7.62891 180.072 7.62891C182.92 7.62891 185.164 8.51367 186.805 10.2832C188.445 12.041 189.266 14.4375 189.266 17.4727V17.6836C189.266 20.6484 188.439 23.0039 186.787 24.75C185.146 26.4844 182.92 27.3516 180.107 27.3516C177.4 27.3516 175.227 26.543 173.586 24.9258C171.945 23.2969 171.061 21.0938 170.932 18.3164L170.914 17.3145ZM176.838 17.6836C176.838 19.4414 177.113 20.7305 177.664 21.5508C178.215 22.3711 179.029 22.7812 180.107 22.7812C182.217 22.7812 183.295 21.1582 183.342 17.9121V17.3145C183.342 13.9043 182.252 12.1992 180.072 12.1992C178.092 12.1992 177.02 13.6699 176.855 16.6113L176.838 17.6836ZM203.381 13.3418L201.43 13.2012C199.566 13.2012 198.371 13.7871 197.844 14.959V27H191.92V7.98047H197.475L197.668 10.4238C198.664 8.56055 200.053 7.62891 201.834 7.62891C202.467 7.62891 203.018 7.69922 203.486 7.83984L203.381 13.3418ZM211.766 27H205.824V0H211.766V27ZM214.684 17.3496C214.684 14.3379 215.334 11.9648 216.635 10.2305C217.936 8.49609 219.752 7.62891 222.084 7.62891C223.783 7.62891 225.213 8.29688 226.373 9.63281V0H232.314V27H226.988L226.689 24.9609C225.471 26.5547 223.924 27.3516 222.049 27.3516C219.787 27.3516 217.994 26.4844 216.67 24.75C215.346 23.0156 214.684 20.5488 214.684 17.3496ZM220.607 17.7188C220.607 21.0938 221.592 22.7812 223.561 22.7812C224.873 22.7812 225.811 22.2305 226.373 21.1289V13.8867C225.834 12.7617 224.908 12.1992 223.596 12.1992C221.768 12.1992 220.777 13.6758 220.625 16.6289L220.607 17.7188Z" fill="url(#paint0_linear)"/>
<defs>
<linearGradient id="paint0_linear" x1="-10.7379" y1="15" x2="288.272" y2="15" gradientUnits="userSpaceOnUse">
<stop offset="0.0280784" stop-color="#C2E2F6"/>
<stop offset="0.195426" stop-color="white"/>
<stop offset="0.502231" stop-color="#C1E2F6"/>
<stop offset="0.725362" stop-color="white"/>
</linearGradient>
</defs>
</svg>
